<svg width="72" height="42" viewBox="0 0 72 42" fill="none" xmlns="http://www.w3.org/2000/svg">
<path d="M25.24 29.6C26.408 29.6 27.304 29.824 27.928 30.272C28.56 30.712 28.876 31.372 28.876 32.252C28.876 32.732 28.788 33.144 28.612 33.488C28.444 33.824 28.196 34.1 27.868 34.316C27.548 34.524 27.156 34.676 26.692 34.772C26.228 34.868 25.704 34.916 25.12 34.916H24.196V38H23.032V29.804C23.36 29.724 23.724 29.672 24.124 29.648C24.532 29.616 24.904 29.6 25.24 29.6ZM25.336 30.62C24.84 30.62 24.46 30.632 24.196 30.656V33.92H25.072C25.472 33.92 25.832 33.896 26.152 33.848C26.472 33.792 26.74 33.704 26.956 33.584C27.18 33.456 27.352 33.284 27.472 33.068C27.592 32.852 27.652 32.576 27.652 32.24C27.652 31.92 27.588 31.656 27.46 31.448C27.34 31.24 27.172 31.076 26.956 30.956C26.748 30.828 26.504 30.74 26.224 30.692C25.944 30.644 25.648 30.62 25.336 30.62ZM47.6488 38.18C47.0648 38.18 46.5328 38.084 46.0528 37.892C45.5728 37.7 45.1608 37.42 44.8168 37.052C44.4728 36.684 44.2048 36.232 44.0128 35.696C43.8288 35.152 43.7368 34.532 43.7368 33.836C43.7368 33.14 43.8408 32.524 44.0488 31.988C44.2648 31.444 44.5528 30.988 44.9128 30.62C45.2728 30.252 45.6928 29.972 46.1728 29.78C46.6528 29.588 47.1648 29.492 47.7088 29.492C48.0528 29.492 48.3608 29.516 48.6328 29.564C48.9128 29.612 49.1528 29.668 49.3528 29.732C49.5608 29.796 49.7288 29.86 49.8568 29.924C49.9848 29.988 50.0728 30.036 50.1208 30.068L49.7848 31.028C49.7128 30.98 49.6088 30.928 49.4728 30.872C49.3368 30.816 49.1808 30.76 49.0048 30.704C48.8368 30.648 48.6488 30.604 48.4408 30.572C48.2408 30.532 48.0368 30.512 47.8288 30.512C47.3888 30.512 46.9928 30.588 46.6408 30.74C46.2888 30.892 45.9888 31.112 45.7408 31.4C45.4928 31.688 45.3008 32.04 45.1648 32.456C45.0368 32.864 44.9728 33.324 44.9728 33.836C44.9728 34.332 45.0288 34.784 45.1408 35.192C45.2608 35.6 45.4368 35.952 45.6688 36.248C45.9008 36.536 46.1888 36.76 46.5328 36.92C46.8848 37.08 47.2928 37.16 47.7568 37.16C48.2928 37.16 48.7368 37.104 49.0888 36.992C49.4408 36.88 49.7048 36.78 49.8808 36.692L50.1808 37.652C50.1248 37.692 50.0248 37.744 49.8808 37.808C49.7368 37.864 49.5568 37.92 49.3408 37.976C49.1248 38.032 48.8728 38.08 48.5848 38.12C48.2968 38.16 47.9848 38.18 47.6488 38.18Z" fill="white"/>
<path d="M5.66 6.98C7.74 6.98 9.33333 7.35333 10.44 8.1C11.5467 8.83333 12.1 9.98 12.1 11.54C12.1 12.5133 11.8733 13.3067 11.42 13.92C10.98 14.52 10.34 14.9933 9.5 15.34C9.78 15.6867 10.0733 16.0867 10.38 16.54C10.6867 16.98 10.9867 17.4467 11.28 17.94C11.5867 18.42 11.88 18.9267 12.16 19.46C12.44 19.98 12.7 20.4933 12.94 21H9.44C9.18667 20.5467 8.92667 20.0867 8.66 19.62C8.40667 19.1533 8.14 18.7 7.86 18.26C7.59333 17.82 7.32667 17.4067 7.06 17.02C6.79333 16.62 6.52667 16.26 6.26 15.94H4.72V21H1.6V7.34C2.28 7.20667 2.98 7.11333 3.7 7.06C4.43333 7.00667 5.08667 6.98 5.66 6.98ZM5.84 9.64C5.61333 9.64 5.40667 9.64667 5.22 9.66C5.04667 9.67333 4.88 9.68667 4.72 9.7V13.46H5.6C6.77333 13.46 7.61333 13.3133 8.12 13.02C8.62667 12.7267 8.88 12.2267 8.88 11.52C8.88 10.84 8.62 10.36 8.1 10.08C7.59333 9.78667 6.84 9.64 5.84 9.64ZM14.9398 21V7.14H24.2998V9.76H18.0598V12.48H23.5998V15.04H18.0598V18.38H24.7598V21H14.9398ZM31.2288 6.98C33.2954 6.98 34.8821 7.34667 35.9888 8.08C37.0954 8.8 37.6488 9.98667 37.6488 11.64C37.6488 13.3067 37.0888 14.5133 35.9688 15.26C34.8488 15.9933 33.2488 16.36 31.1688 16.36H30.1888V21H27.0688V7.34C27.7488 7.20667 28.4688 7.11333 29.2288 7.06C29.9888 7.00667 30.6554 6.98 31.2288 6.98ZM31.4288 9.64C31.2021 9.64 30.9754 9.64667 30.7487 9.66C30.5354 9.67333 30.3488 9.68667 30.1888 9.7V13.7H31.1688C32.2488 13.7 33.0621 13.5533 33.6088 13.26C34.1554 12.9667 34.4288 12.42 34.4288 11.62C34.4288 11.2333 34.3554 10.9133 34.2088 10.66C34.0754 10.4067 33.8754 10.2067 33.6088 10.06C33.3554 9.9 33.0421 9.79333 32.6688 9.74C32.2954 9.67333 31.8821 9.64 31.4288 9.64ZM47.8527 21C47.706 20.52 47.5393 20.0267 47.3527 19.52C47.1793 19.0133 47.006 18.5067 46.8327 18H41.4327C41.2593 18.5067 41.0793 19.0133 40.8927 19.52C40.7193 20.0267 40.5593 20.52 40.4127 21H37.1727C37.6927 19.5067 38.186 18.1267 38.6527 16.86C39.1193 15.5933 39.5727 14.4 40.0127 13.28C40.466 12.16 40.906 11.1 41.3327 10.1C41.7727 9.08667 42.226 8.1 42.6927 7.14H45.6727C46.126 8.1 46.5727 9.08667 47.0127 10.1C47.4527 11.1 47.8927 12.16 48.3327 13.28C48.786 14.4 49.246 15.5933 49.7127 16.86C50.1793 18.1267 50.6727 19.5067 51.1927 21H47.8527ZM44.1127 10.28C44.046 10.48 43.946 10.7533 43.8127 11.1C43.6793 11.4467 43.526 11.8467 43.3527 12.3C43.1793 12.7533 42.986 13.2533 42.7727 13.8C42.5727 14.3467 42.366 14.92 42.1527 15.52H46.0927C45.8793 14.92 45.6727 14.3467 45.4727 13.8C45.2727 13.2533 45.0793 12.7533 44.8927 12.3C44.7193 11.8467 44.566 11.4467 44.4327 11.1C44.2993 10.7533 44.1927 10.48 44.1127 10.28ZM52.9867 7.14H56.1067V21H52.9867V7.14ZM63.3748 6.98C65.4548 6.98 67.0482 7.35333 68.1548 8.1C69.2615 8.83333 69.8148 9.98 69.8148 11.54C69.8148 12.5133 69.5882 13.3067 69.1348 13.92C68.6948 14.52 68.0548 14.9933 67.2148 15.34C67.4948 15.6867 67.7882 16.0867 68.0948 16.54C68.4015 16.98 68.7015 17.4467 68.9948 17.94C69.3015 18.42 69.5948 18.9267 69.8748 19.46C70.1548 19.98 70.4148 20.4933 70.6548 21H67.1548C66.9015 20.5467 66.6415 20.0867 66.3748 19.62C66.1215 19.1533 65.8548 18.7 65.5748 18.26C65.3082 17.82 65.0415 17.4067 64.7748 17.02C64.5082 16.62 64.2415 16.26 63.9748 15.94H62.4348V21H59.3148V7.34C59.9948 7.20667 60.6948 7.11333 61.4148 7.06C62.1482 7.00667 62.8015 6.98 63.3748 6.98ZM63.5548 9.64C63.3282 9.64 63.1215 9.64667 62.9348 9.66C62.7615 9.67333 62.5948 9.68667 62.4348 9.7V13.46H63.3148C64.4882 13.46 65.3282 13.3133 65.8348 13.02C66.3415 12.7267 66.5948 12.2267 66.5948 11.52C66.5948 10.84 66.3348 10.36 65.8148 10.08C65.3082 9.78667 64.5548 9.64 63.5548 9.64Z" fill="white"/>
</svg>
